<svg id="Component_11_1" data-name="Component 11 – 1" xmlns="http://www.w3.org/2000/svg" width="103" height="91" viewBox="0 0 103 91">
  <g id="Component_4_3" data-name="Component 4 – 3">
    <g id="Polygon_4" data-name="Polygon 4" fill="#febb4e">
      <path d="M 94.4251708984375 88.00000762939453 L 8.574846267700195 88.00000762939453 C 7.537830829620361 88.00000762939453 7.021138668060303 87.30588531494141 6.847123146057129 87.00745391845703 C 6.673092365264893 86.70902252197266 6.323492527008057 85.91745758056641 6.834261417388916 85.01494598388672 L 49.75941467285156 9.166607856750488 C 50.27783203125 8.250561714172363 51.14935302734375 8.151669502258301 51.5 8.151669502258301 C 51.85064697265625 8.151669502258301 52.72216796875 8.250561714172363 53.24058532714844 9.166607856750488 L 96.16574096679688 85.01493072509766 C 96.67650604248047 85.91745758056641 96.326904296875 86.70900726318359 96.15289306640625 87.00743865966797 C 95.97887420654297 87.30587005615234 95.46216583251953 88.00000762939453 94.42515563964844 88.00000762939453 L 94.4251708984375 88.00000762939453 Z" stroke="none"/>
      <path d="M 51.4999885559082 12.18201446533203 L 10.28981781005859 85 L 92.71018218994141 85 L 51.4999885559082 12.18201446533203 M 51.49999237060547 5.15167236328125 C 53.19707107543945 5.15167236328125 54.8941535949707 5.997451782226562 55.85147094726562 7.689018249511719 L 98.77663421630859 83.53734588623047 C 100.6629791259766 86.87049102783203 98.25507354736328 90.99998474121094 94.42516326904297 91 L 8.574836730957031 91 C 4.744941711425781 91 2.337020874023438 86.87049102783203 4.223365783691406 83.53734588623047 L 47.14850997924805 7.689018249511719 C 48.10582733154297 5.997451782226562 49.80290985107422 5.15167236328125 51.49999237060547 5.15167236328125 Z" stroke="none" fill="#febb4e"/>
    </g>
  </g>
  <line id="Line_51" data-name="Line 51" y2="50" transform="translate(51.5 21.5)" fill="none" stroke="#fff" stroke-linecap="round" stroke-width="7"/>
  <g id="Ellipse_26" data-name="Ellipse 26" transform="translate(48 78)" fill="#fff" stroke="#fff" stroke-width="1">
    <circle cx="3.5" cy="3.5" r="3.5" stroke="none"/>
    <circle cx="3.5" cy="3.5" r="3" fill="none"/>
  </g>
</svg>
